<svg width="22" height="22" viewBox="0 0 22 22" fill="none" xmlns="http://www.w3.org/2000/svg">
<path fill-rule="evenodd" clip-rule="evenodd" d="M0 5.59471C0 4.1109 0.589441 2.68786 1.63865 1.63865C2.68786 0.589441 4.1109 0 5.59471 0H15.9849C16.1969 0 16.4002 0.0842058 16.55 0.234093C16.6999 0.383981 16.7841 0.587272 16.7841 0.799244V3.03393H5.36293C5.09796 3.03393 4.84385 3.13919 4.65649 3.32655C4.46913 3.51391 4.36387 3.76802 4.36387 4.03299C4.36387 4.29795 4.46913 4.55207 4.65649 4.73943C4.84385 4.92679 5.09796 5.03204 5.36293 5.03204H17.4875C17.5194 5.03204 17.5498 5.03044 17.5802 5.02725H17.9223C18.5582 5.02725 19.168 5.27986 19.6177 5.72953C20.0674 6.17919 20.32 6.78906 20.32 7.42498V8.8892H15.6044C14.2873 8.8892 12.8071 9.88825 12.8071 11.5986V14.4407C12.8071 16.1511 14.2873 17.1502 15.6044 17.1502H20.32V18.6144C20.32 19.2503 20.0674 19.8602 19.6177 20.3099C19.168 20.7595 18.5582 21.0121 17.9223 21.0121H2.39773C1.76181 21.0121 1.15194 20.7595 0.70228 20.3099C0.252618 19.8602 0 19.2503 0 18.6144L0 5.59471ZM15.606 10.8873H21.2008C21.6419 10.8873 22 11.207 22 11.5986V14.4407C22 14.834 21.6419 15.1521 21.2008 15.1521H15.606C15.1649 15.1521 14.8068 14.8324 14.8068 14.4407V11.5986C14.8068 11.2054 15.1649 10.8873 15.606 10.8873Z" fill="currentColor"/>
</svg>
