<svg width="28" height="28" viewBox="0 0 28 28" xmlns="http://www.w3.org/2000/svg">
  <circle cx="14" cy="14" r="14" transform="matrix(0 1 1 0 0 0)" fill="#8C81F2" fill-opacity="0.1" />
  <path d="M13.2501 9.00001C13.2501 8.58579 13.5859 8.25001 14.0001 8.25001C14.4143 8.25001 14.7501 8.58579 14.7501 9.00001L13.2501 9.00001ZM14.5305 19.5303C14.2376 19.8232 13.7627 19.8232 13.4698 19.5303L8.69682 14.7574C8.40393 14.4645 8.40393 13.9896 8.69682 13.6967C8.98972 13.4038 9.46459 13.4038 9.75748 13.6967L14.0001 17.9393L18.2428 13.6967C18.5357 13.4038 19.0105 13.4038 19.3034 13.6967C19.5963 13.9896 19.5963 14.4645 19.3034 14.7574L14.5305 19.5303ZM14.7501 9.00001L14.7501 19L13.2501 19L13.2501 9.00001L14.7501 9.00001Z" fill="#8C81F2" />
</svg>