<svg xmlns="http://www.w3.org/2000/svg" width="14" height="13" viewBox="0 0 14 13" fill="none">
    <path fill-rule="evenodd" clip-rule="evenodd"
        d="M2.38042 4.99992C3.89615 2.37461 4.65401 1.06196 5.64344 0.621433C6.50646 0.237191 7.49199 0.237191 8.35501 0.621433C9.34444 1.06196 10.1023 2.37461 11.618 4.99992C13.1338 7.62523 13.8916 8.93788 13.7784 10.015C13.6797 10.9545 13.1869 11.808 12.4226 12.3633C11.5464 12.9999 10.0307 12.9999 6.99922 12.9999C3.96778 12.9999 2.45206 12.9999 1.57584 12.3633C0.811565 11.808 0.318799 10.9545 0.220051 10.015C0.10684 8.93788 0.864701 7.62523 2.38042 4.99992ZM6.99919 3.16659C7.27533 3.16659 7.49919 3.39044 7.49919 3.66659V7.66659C7.49919 7.94273 7.27533 8.16659 6.99919 8.16659C6.72304 8.16659 6.49919 7.94273 6.49919 7.66659V3.66659C6.49919 3.39044 6.72304 3.16659 6.99919 3.16659ZM6.99919 10.3333C7.36738 10.3333 7.66585 10.0348 7.66585 9.66659C7.66585 9.2984 7.36738 8.99992 6.99919 8.99992C6.631 8.99992 6.33252 9.2984 6.33252 9.66659C6.33252 10.0348 6.631 10.3333 6.99919 10.3333Z"
        fill="#8C81F2" />
</svg>