<svg xmlns="http://www.w3.org/2000/svg" width="50" height="50" viewBox="0 0 50 50" fill="none">
    <path fill-rule="evenodd" clip-rule="evenodd"
        d="M49.1673 25C49.1673 38.3469 38.3475 49.1667 25.0006 49.1667C11.6538 49.1667 0.833984 38.3469 0.833984 25C0.833984 11.6531 11.6538 0.833336 25.0006 0.833336C38.3475 0.833336 49.1673 11.6531 49.1673 25ZM25.0006 11.1042C26.0017 11.1042 26.8131 11.9157 26.8131 12.9167V27.4167C26.8131 28.4177 26.0017 29.2292 25.0006 29.2292C23.9996 29.2292 23.1882 28.4177 23.1882 27.4167V12.9167C23.1882 11.9157 23.9996 11.1042 25.0006 11.1042ZM25.0006 37.0833C26.3353 37.0833 27.4173 36.0014 27.4173 34.6667C27.4173 33.332 26.3353 32.25 25.0006 32.25C23.666 32.25 22.584 33.332 22.584 34.6667C22.584 36.0014 23.666 37.0833 25.0006 37.0833Z"
        fill="#FF8870" />
</svg>