<svg xmlns="http://www.w3.org/2000/svg" width="14" height="14" viewBox="0 0 14 14">
    <path d="M0 11.0834C0.00092625 11.8566 0.308514 12.598 0.855295 13.1447C1.40208 13.6915 2.1434 13.9991 2.91667 14H11.0833C11.8566 13.9991 12.5979 13.6915 13.1447 13.1447C13.6915 12.598 13.9991 11.8566 14 11.0834V5.83337H0V11.0834ZM9.91667 8.45837C10.0897 8.45837 10.2589 8.50969 10.4028 8.60584C10.5467 8.70198 10.6588 8.83864 10.7251 8.99853C10.7913 9.15841 10.8086 9.33434 10.7749 9.50408C10.7411 9.67381 10.6578 9.82972 10.5354 9.95209C10.413 10.0745 10.2571 10.1578 10.0874 10.1916C9.91764 10.2253 9.7417 10.208 9.58182 10.1418C9.42193 10.0755 9.28528 9.96339 9.18913 9.8195C9.09298 9.6756 9.04167 9.50643 9.04167 9.33337C9.04167 9.10131 9.13385 8.87875 9.29795 8.71466C9.46204 8.55056 9.6846 8.45837 9.91667 8.45837ZM7 8.45837C7.17306 8.45837 7.34223 8.50969 7.48612 8.60584C7.63002 8.70198 7.74217 8.83864 7.80839 8.99853C7.87462 9.15841 7.89195 9.33434 7.85819 9.50408C7.82442 9.67381 7.74109 9.82972 7.61872 9.95209C7.49635 10.0745 7.34044 10.1578 7.1707 10.1916C7.00097 10.2253 6.82504 10.208 6.66515 10.1418C6.50527 10.0755 6.36861 9.96339 6.27246 9.8195C6.17632 9.6756 6.125 9.50643 6.125 9.33337C6.125 9.10131 6.21719 8.87875 6.38128 8.71466C6.54538 8.55056 6.76794 8.45837 7 8.45837ZM4.08333 8.45837C4.25639 8.45837 4.42556 8.50969 4.56946 8.60584C4.71335 8.70198 4.8255 8.83864 4.89173 8.99853C4.95795 9.15841 4.97528 9.33434 4.94152 9.50408C4.90776 9.67381 4.82442 9.82972 4.70205 9.95209C4.57968 10.0745 4.42377 10.1578 4.25404 10.1916C4.0843 10.2253 3.90837 10.208 3.74849 10.1418C3.5886 10.0755 3.45194 9.96339 3.3558 9.8195C3.25965 9.6756 3.20833 9.50643 3.20833 9.33337C3.20833 9.10131 3.30052 8.87875 3.46461 8.71466C3.62871 8.55056 3.85127 8.45837 4.08333 8.45837Z" fill="currentColor"/>
    <path d="M11.0833 1.16667H10.5V0.583333C10.5 0.428624 10.4385 0.280251 10.3291 0.170854C10.2197 0.0614582 10.0714 0 9.91667 0C9.76196 0 9.61358 0.0614582 9.50419 0.170854C9.39479 0.280251 9.33333 0.428624 9.33333 0.583333V1.16667H4.66667V0.583333C4.66667 0.428624 4.60521 0.280251 4.49581 0.170854C4.38642 0.0614582 4.23804 0 4.08333 0C3.92862 0 3.78025 0.0614582 3.67085 0.170854C3.56146 0.280251 3.5 0.428624 3.5 0.583333V1.16667H2.91667C2.1434 1.16759 1.40208 1.47518 0.855295 2.02196C0.308514 2.56874 0.00092625 3.31007 0 4.08333L0 4.66667H14V4.08333C13.9991 3.31007 13.6915 2.56874 13.1447 2.02196C12.5979 1.47518 11.8566 1.16759 11.0833 1.16667Z" fill="currentColor"/>
</svg>
