<svg xmlns="http://www.w3.org/2000/svg" width="12" height="15" viewBox="0 0 12 15">
    <path
        d="M11.2498 2.83332H9.4415C9.16241 1.47625 7.96863 0.50175 6.58315 0.5H5.41648C4.031 0.50175 2.83722 1.47625 2.55815 2.83332H0.749828C0.427664 2.83332 0.166504 3.09448 0.166504 3.41665C0.166504 3.73881 0.427664 4 0.749828 4H1.33315V11.5833C1.33509 13.1934 2.6398 14.4981 4.24983 14.5H7.74983C9.35986 14.4981 10.6646 13.1934 10.6665 11.5833V4H11.2498C11.572 4 11.8332 3.73884 11.8332 3.41668C11.8332 3.09451 11.572 2.83332 11.2498 2.83332ZM5.4165 10.4167C5.4165 10.7388 5.15534 11 4.83318 11C4.51099 11 4.24983 10.7388 4.24983 10.4167V6.91668C4.24983 6.59451 4.51099 6.33335 4.83315 6.33335C5.15532 6.33335 5.41648 6.59451 5.41648 6.91668V10.4167H5.4165ZM7.74983 10.4167C7.74983 10.7388 7.48867 11 7.1665 11C6.84434 11 6.58318 10.7388 6.58318 10.4167V6.91668C6.58318 6.59451 6.84434 6.33335 7.1665 6.33335C7.48867 6.33335 7.74983 6.59451 7.74983 6.91668V10.4167ZM3.76625 2.83332C4.01437 2.13466 4.67511 1.66755 5.4165 1.66665H6.58318C7.32458 1.66755 7.98531 2.13466 8.23343 2.83332H3.76625Z"
        fill="currentColor" />
</svg>