<svg xmlns="http://www.w3.org/2000/svg" width="17" height="16" viewBox="0 0 17 16" fill="none">
    <path fill-rule="evenodd" clip-rule="evenodd"
        d="M0.5 8C0.5 4.6669 0.5 3.00036 1.34881 1.83207C1.62294 1.45476 1.95476 1.12294 2.33207 0.848813C3.50036 0 5.1669 0 8.5 0C11.8331 0 13.4996 0 14.6679 0.848813C15.0452 1.12294 15.3771 1.45476 15.6512 1.83207C16.5 3.00036 16.5 4.6669 16.5 8C16.5 8.74573 16.5 9.40803 16.4905 10L16.4282 10C15.6708 9.99994 15.2095 9.9999 14.8116 10.0629C12.6246 10.4093 10.9093 12.1246 10.5629 14.3116C10.4999 14.7095 10.4999 15.1708 10.5 15.9282L10.5 15.9905C9.90803 16 9.24573 16 8.5 16C5.1669 16 3.50036 16 2.33207 15.1512C1.95476 14.8771 1.62294 14.5452 1.34881 14.1679C0.5 12.9996 0.5 11.3331 0.5 8ZM4.94444 5.11111L7.61111 5.11111C7.9793 5.11111 8.27778 4.81263 8.27778 4.44444C8.27778 4.07625 7.9793 3.77778 7.61111 3.77778L4.94444 3.77778C4.57625 3.77778 4.27778 4.07625 4.27778 4.44444C4.27778 4.81263 4.57625 5.11111 4.94444 5.11111ZM4.27778 8C4.27778 8.36819 4.57625 8.66667 4.94444 8.66667L12.0556 8.66667C12.4237 8.66667 12.7222 8.36819 12.7222 8C12.7222 7.63181 12.4237 7.33333 12.0556 7.33333L4.94444 7.33333C4.57625 7.33333 4.27778 7.63181 4.27778 8Z"
        fill="#8C81F2" />
    <path
        d="M15.0201 11.3798C15.2943 11.3364 15.6327 11.3335 16.4419 11.3333C16.358 12.613 16.1528 13.4775 15.6512 14.1679C15.3771 14.5452 15.0452 14.8771 14.6679 15.1512C13.9775 15.6528 13.113 15.858 11.8333 15.9419C11.8335 15.1327 11.8364 14.7943 11.8798 14.5201C12.1359 12.9037 13.4037 11.6359 15.0201 11.3798Z"
        fill="#8C81F2" />
</svg>