<svg xmlns="http://www.w3.org/2000/svg" width="18" height="18" viewBox="0 0 18 18" fill="none">
<path fill-rule="evenodd" clip-rule="evenodd" d="M2.85497 0.533496C2.94959 0.464745 3.04745 0.401493 3.14914 0.343302C3.18181 0.416055 3.22801 0.484208 3.28775 0.543949C4.44925 1.7054 5.36095 2.61565 6.16461 3.25887C6.97823 3.91006 7.74018 4.3375 8.61806 4.47654C9.15442 4.56149 9.7008 4.56149 10.2372 4.47654C11.0905 4.34138 11.8342 3.93378 12.6224 3.31307C13.4005 2.70027 14.274 1.83657 15.3736 0.737759C15.4089 0.702504 15.4394 0.664315 15.4653 0.623978C15.7978 0.883003 16.0925 1.18762 16.3406 1.52904C17.2 2.71193 17.2 4.39931 17.2 7.77407V9.57407C17.2 12.9488 17.2 14.6362 16.3406 15.8191C16.063 16.2011 15.7271 16.5371 15.345 16.8146C14.1621 17.6741 12.4748 17.6741 9.1 17.6741C5.72524 17.6741 4.03786 17.6741 2.85497 16.8146C2.47294 16.5371 2.13698 16.2011 1.85942 15.8191C1 14.6362 1 12.9488 1 9.57407V7.77407C1 4.39931 1 2.71193 1.85942 1.52904C2.13698 1.14701 2.47294 0.811054 2.85497 0.533496ZM5.5 6.19907C5.12721 6.19907 4.825 6.50128 4.825 6.87407C4.825 7.24686 5.12721 7.54907 5.5 7.54907H12.7C13.0728 7.54907 13.375 7.24686 13.375 6.87407C13.375 6.50128 13.0728 6.19907 12.7 6.19907H5.5ZM5.5 9.79907C5.12721 9.79907 4.825 10.1013 4.825 10.4741C4.825 10.8469 5.12721 11.1491 5.5 11.1491H12.7C13.0728 11.1491 13.375 10.8469 13.375 10.4741C13.375 10.1013 13.0728 9.79907 12.7 9.79907H5.5ZM5.5 13.3991C5.12721 13.3991 4.825 13.7013 4.825 14.0741C4.825 14.4469 5.12721 14.7491 5.5 14.7491H12.7C13.0728 14.7491 13.375 14.4469 13.375 14.0741C13.375 13.7013 13.0728 13.3991 12.7 13.3991H5.5Z" fill="#8C81F2" />
<path d="M9.1 -0.325928C11.5299 -0.325928 13.0851 -0.325928 14.2069 -0.00510263C13.1986 1.00057 12.4444 1.73484 11.7871 2.25248C11.0945 2.79792 10.5636 3.05801 10.026 3.14316C9.62954 3.20595 9.22569 3.20595 8.82925 3.14316C8.27617 3.05556 7.73036 2.78289 7.00819 2.20489C6.33577 1.66671 5.56211 0.907458 4.52494 -0.12822C5.59786 -0.325928 7.03217 -0.325928 9.1 -0.325928Z" fill="#8C81F2" />
</svg>
