<svg width="21" height="20" viewBox="0 0 21 20" fill="none" xmlns="http://www.w3.org/2000/svg">
<path fill-rule="evenodd" clip-rule="evenodd" d="M3.56243 0.149522C4.94291 0.0512609 6.36414 0 7.81524 0C9.26633 0 10.6876 0.0512609 12.068 0.149522C13.7496 0.269217 15.1369 1.44435 15.4209 3.01119C14.7877 3.05117 14.1669 3.27163 13.6386 3.66544C12.7721 4.31136 12.2815 5.329 12.2978 6.38856H6.90333C5.06238 6.38858 3.57 7.88097 3.57 9.72192C3.57 11.5629 5.06239 13.0553 6.90335 13.0553H12.2978C12.2815 14.1148 12.7721 15.1324 13.6386 15.7784C14.1822 16.1835 14.8239 16.4053 15.476 16.4357L15.4698 16.5619C15.3815 18.3382 13.8992 19.7201 12.068 19.8505C10.6876 19.9487 9.26633 20 7.81524 20C6.36414 20 4.94291 19.9487 3.56243 19.8505C1.73126 19.7201 0.248995 18.3382 0.160625 16.5619C0.0553889 14.4465 0 12.2511 0 10C0 7.74897 0.0553889 5.55363 0.160623 3.43821C0.248995 1.66182 1.73126 0.279866 3.56243 0.149522ZM14.4611 8.24042L14.1717 6.59446C14.0748 6.04332 14.2967 5.4846 14.7453 5.15014C15.1941 4.81568 15.7929 4.76257 16.2933 5.01283C17.9336 5.83298 19.5197 7.41904 20.3399 9.05928C20.5485 9.47635 20.5485 9.96729 20.3399 10.3844C19.5197 12.0247 17.9336 13.6108 16.2933 14.431C15.7929 14.6812 15.1941 14.6281 14.7453 14.2936C14.2967 13.9592 14.0748 13.4005 14.1717 12.8493L14.4611 11.2034L6.90335 11.2034C6.08515 11.2034 5.42186 10.5401 5.42186 9.72192C5.42186 8.90373 6.08514 8.24044 6.90335 8.24044L14.4611 8.24042Z" fill="currentColor"/>
</svg>
