<svg xmlns="http://www.w3.org/2000/svg" width="14" height="11" viewBox="0 0 14 11" fill="none">
  <path d="M6.99994 7.8324C8.28811 7.8324 9.33239 6.78813 9.33239 5.49995C9.33239 4.21177 8.28811 3.1675 6.99994 3.1675C5.71176 3.1675 4.66748 4.21177 4.66748 5.49995C4.66748 6.78813 5.71176 7.8324 6.99994 7.8324Z" fill="white"/>
  <path d="M13.5723 3.99504C12.6679 2.52209 10.6106 0.050827 6.99999 0.050827C3.38933 0.050827 1.33209 2.52209 0.427675 3.99504C-0.142558 4.91736 -0.142558 6.08275 0.427675 7.0051C1.33209 8.47805 3.38933 10.9493 6.99999 10.9493C10.6106 10.9493 12.6679 8.47805 13.5723 7.0051C14.1425 6.08275 14.1425 4.91736 13.5723 3.99504ZM6.99999 8.99876C5.06772 8.99876 3.50128 7.43232 3.50128 5.50005C3.50128 3.56779 5.06772 2.00135 6.99999 2.00135C8.93225 2.00135 10.4987 3.56779 10.4987 5.50005C10.4967 7.43153 8.93146 8.99681 6.99999 8.99876Z" fill="white"/>
</svg>