<svg xmlns="http://www.w3.org/2000/svg" width="19" height="18" viewBox="0 0 19 18" fill="none">
    <path fill-rule="evenodd" clip-rule="evenodd"
        d="M17.5 8.67407C17.5 13.0924 13.9183 16.6741 9.5 16.6741C5.08172 16.6741 1.5 13.0924 1.5 8.67407C1.5 4.25579 5.08172 0.674072 9.5 0.674072C13.9183 0.674072 17.5 4.25579 17.5 8.67407ZM10.7468 5.20318C9.96926 4.16641 8.34727 4.42963 7.93746 5.65908L7.66921 6.46381C7.56442 6.77818 7.22463 6.94807 6.91026 6.84328C6.5959 6.7385 6.426 6.3987 6.53079 6.08434L6.79904 5.2796C7.51496 3.13183 10.3485 2.67202 11.7068 4.48318C12.5025 5.54411 12.447 7.01721 11.5737 8.01525L10.8384 8.85567C10.3624 9.39967 10.1 10.0979 10.1 10.8208V11.0741C10.1 11.4054 9.83137 11.6741 9.5 11.6741C9.16863 11.6741 8.9 11.4054 8.9 11.0741V10.8208C8.9 9.80728 9.26787 8.82821 9.93527 8.06546L10.6706 7.22505C11.1705 6.65374 11.2023 5.81049 10.7468 5.20318ZM9.5 14.2741C9.94183 14.2741 10.3 13.9159 10.3 13.4741C10.3 13.0322 9.94183 12.6741 9.5 12.6741C9.05817 12.6741 8.7 13.0322 8.7 13.4741C8.7 13.9159 9.05817 14.2741 9.5 14.2741Z"
        fill="#8C81F2" />
</svg>