<svg xmlns="http://www.w3.org/2000/svg" width="20" height="20" viewBox="0 0 20 20" fill="none">
    <path fill-rule="evenodd" clip-rule="evenodd"
        d="M2.44448 0C1.85274 0 1.37305 0.479694 1.37305 1.07143C1.37305 1.66316 1.85274 2.14286 2.44448 2.14286H4.27284C4.19745 2.36746 4.12201 2.5954 4.05052 2.8233C3.84024 3.49367 3.652 4.20073 3.58357 4.9136C3.51455 5.63263 3.5655 6.3751 3.84728 7.10789C4.13021 7.84364 4.62871 8.52483 5.38754 9.14496C5.79997 9.48199 6.2583 9.7681 6.74905 10C6.2583 10.2319 5.79997 10.518 5.38754 10.855C4.62871 11.4752 4.13021 12.1564 3.84728 12.8921C3.5655 13.6249 3.51455 14.3674 3.58357 15.0864C3.652 15.7993 3.84024 16.5063 4.05052 17.1767C4.12201 17.4046 4.19745 17.6326 4.27284 17.8571H2.44448C1.85274 17.8571 1.37305 18.3369 1.37305 18.9286C1.37305 19.5203 1.85274 20 2.44448 20H17.5543C18.1462 20 18.6257 19.5203 18.6257 18.9286C18.6257 18.3369 18.1462 17.8571 17.5543 17.8571H15.7263C15.8016 17.6326 15.8772 17.4046 15.9486 17.1767C16.1589 16.5063 16.3472 15.7993 16.4156 15.0864C16.4846 14.3674 16.4336 13.6249 16.1519 12.8921C15.8689 12.1564 15.3704 11.4752 14.6116 10.855C14.1991 10.518 13.7408 10.2319 13.25 10C13.7408 9.7681 14.1991 9.48199 14.6116 9.14496C15.3704 8.52483 15.8689 7.84364 16.1519 7.10789C16.4336 6.3751 16.4846 5.63263 16.4156 4.9136C16.3472 4.20073 16.1589 3.49367 15.9486 2.8233C15.8772 2.5954 15.8016 2.36746 15.7263 2.14286H17.5543C18.1462 2.14286 18.6257 1.66316 18.6257 1.07143C18.6257 0.479694 18.1462 0 17.5543 0L2.44448 0ZM13.7789 14.5904C14.0736 14.7274 14.2754 15.0251 14.2153 15.3444C14.1468 15.708 14.0396 16.1024 13.9038 16.5354C13.8536 16.6954 13.8016 16.8547 13.7487 17.0139C13.6519 17.3047 13.3789 17.5 13.0724 17.5H6.9265C6.62 17.5 6.34691 17.3047 6.25018 17.0139C6.19727 16.8547 6.14521 16.6954 6.09502 16.5354C5.95924 16.1024 5.85207 15.7081 5.78358 15.3444C5.72345 15.0251 5.9253 14.7274 6.21991 14.5904C6.64585 14.3926 7.0604 14.1442 7.47675 13.8947C8.053 13.5495 8.63271 13.2021 9.25091 12.9836C9.47837 12.9032 9.7274 12.8571 9.99944 12.8571C10.2715 12.8571 10.5205 12.9032 10.748 12.9836C11.3662 13.2021 11.9459 13.5495 12.5221 13.8947C12.9385 14.1442 13.353 14.3926 13.7789 14.5904Z"
        fill="black" />
</svg>