<svg xmlns="http://www.w3.org/2000/svg" width="16" height="17" viewBox="0 0 16 17" fill="none">
    <path
        d="M8.55717 0.518536C7.41421 0.438563 6.26741 0.605033 5.19436 1.00668C4.12131 1.40833 3.14705 2.03578 2.33751 2.84659C1.52798 3.65739 0.902042 4.63262 0.502069 5.7063C0.102097 6.77997 -0.0625835 7.92703 0.0191726 9.06987C0.313173 13.3052 4.05451 16.4999 8.72184 16.4999H12.6665C13.5502 16.4988 14.3975 16.1473 15.0224 15.5224C15.6473 14.8975 15.9988 14.0503 15.9998 13.1665V8.72654C16.0247 6.6715 15.2712 4.68313 13.8907 3.16065C12.5102 1.63817 10.6048 0.694294 8.55717 0.518536ZM7.99984 3.8332C8.26506 3.8332 8.51941 3.93856 8.70695 4.1261C8.89448 4.31363 8.99984 4.56799 8.99984 4.8332C8.99984 5.09842 8.89448 5.35277 8.70695 5.54031C8.51941 5.72785 8.26506 5.8332 7.99984 5.8332C7.73462 5.8332 7.48027 5.72785 7.29273 5.54031C7.1052 5.35277 6.99984 5.09842 6.99984 4.8332C6.99984 4.56799 7.1052 4.31363 7.29273 4.1261C7.48027 3.93856 7.73462 3.8332 7.99984 3.8332ZM9.33317 12.4999C9.33317 12.6767 9.26293 12.8463 9.13791 12.9713C9.01289 13.0963 8.84332 13.1665 8.66651 13.1665C8.48969 13.1665 8.32013 13.0963 8.1951 12.9713C8.07008 12.8463 7.99984 12.6767 7.99984 12.4999V8.49987H7.33317C7.15636 8.49987 6.98679 8.42963 6.86177 8.30461C6.73674 8.17958 6.66651 8.01001 6.66651 7.8332C6.66651 7.65639 6.73674 7.48682 6.86177 7.3618C6.98679 7.23677 7.15636 7.16654 7.33317 7.16654H7.99984C8.35346 7.16654 8.6926 7.30701 8.94265 7.55706C9.1927 7.80711 9.33317 8.14625 9.33317 8.49987V12.4999Z"
        fill="#8C81F2" />
</svg>