<svg xmlns="http://www.w3.org/2000/svg" width="18" height="18" viewBox="0 0 18 18" fill="none">
        <path fill-rule="evenodd" clip-rule="evenodd"
            d="M16.0585 12.4988C18.1124 9.17937 16.4428 5.08942 14.5117 3.16076C11.192 -0.154824 5.80958 -0.154824 2.48982 3.16076C-0.82994 6.47635 -0.82994 11.852 2.48982 15.1676C4.50314 17.1783 8.52364 18.7714 11.8401 16.713C12.0237 16.599 12.1156 16.542 12.1856 16.5141C12.3192 16.461 12.4218 16.4453 12.5652 16.4563C12.6404 16.4621 12.7254 16.4841 12.8953 16.5281C13.9645 16.8048 14.4992 16.9433 14.8843 16.865C15.5528 16.7291 16.0753 16.2073 16.2113 15.5397C16.2897 15.155 16.1511 14.6211 15.874 13.5532C15.8299 13.3835 15.8079 13.2986 15.8021 13.2238C15.791 13.0806 15.8064 12.9793 15.8593 12.8458C15.887 12.7759 15.9442 12.6836 16.0585 12.4988ZM4.97968 5.01071C4.62757 5.01071 4.34212 5.29579 4.34212 5.64746C4.34212 5.99914 4.62757 6.28422 4.97968 6.28422H11.7803C12.1324 6.28422 12.4179 5.99914 12.4179 5.64746C12.4179 5.29579 12.1324 5.01071 11.7803 5.01071H4.97968ZM4.97968 8.40674C4.62757 8.40674 4.34212 8.69183 4.34212 9.0435C4.34212 9.39517 4.62757 9.68026 4.97968 9.68026H11.7803C12.1324 9.68026 12.4179 9.39517 12.4179 9.0435C12.4179 8.69183 12.1324 8.40674 11.7803 8.40674H4.97968ZM4.97968 11.8028C4.62757 11.8028 4.34212 12.0879 4.34212 12.4395C4.34212 12.7912 4.62757 13.0763 4.97968 13.0763H11.7803C12.1324 13.0763 12.4179 12.7912 12.4179 12.4395C12.4179 12.0879 12.1324 11.8028 11.7803 11.8028H4.97968Z"
            fill="#8C81F2" />
</svg>
