<svg width="24" height="24" viewBox="0 0 24 24" fill="none" xmlns="http://www.w3.org/2000/svg">
<path fill-rule="evenodd" clip-rule="evenodd" d="M12 0.75C15.7015 0.75 18.296 0.8695 19.9285 0.983C21.561 1.097 22.859 2.3295 23.0045 3.9795C23.129 5.397 23.25 7.537 23.25 10.5C23.25 13.463 23.129 15.603 23.0045 17.0205C22.8595 18.663 21.5735 19.8915 19.951 20.0155C20.3904 19.492 20.6663 18.851 20.7445 18.172C21.2346 17.5542 21.5009 16.7886 21.5 16C21.501 15.2113 21.2347 14.4455 20.7445 13.8275C20.6541 13.0441 20.3009 12.3144 19.7425 11.7575C19.1856 11.1991 18.4559 10.8459 17.6725 10.7555C17.0545 10.2653 16.2887 9.99903 15.5 10C14.7113 9.99903 13.9455 10.2653 13.3275 10.7555C12.5441 10.8459 11.8144 11.1991 11.2575 11.7575C10.6993 12.3145 10.3463 13.0441 10.256 13.8275C9.76563 14.4454 9.49913 15.2112 9.5 16C9.5 16.821 9.7835 17.576 10.256 18.172C10.3462 18.9555 10.6992 19.6854 11.2575 20.2425L11.263 20.2485C7.9515 20.2335 5.5935 20.123 4.0715 20.017C2.439 19.903 1.1405 18.6705 0.9955 17.0205C0.871 15.603 0.75 13.463 0.75 10.5C0.75 7.537 0.871 5.397 0.9955 3.9795C1.1405 2.3295 2.439 1.097 4.0715 0.983C5.704 0.87 8.2985 0.75 12 0.75ZM6 5C5.73478 5 5.48043 5.10536 5.29289 5.29289C5.10536 5.48043 5 5.73478 5 6C5 6.26522 5.10536 6.51957 5.29289 6.70711C5.48043 6.89464 5.73478 7 6 7H16.5C16.7652 7 17.0196 6.89464 17.2071 6.70711C17.3946 6.51957 17.5 6.26522 17.5 6C17.5 5.73478 17.3946 5.48043 17.2071 5.29289C17.0196 5.10536 16.7652 5 16.5 5H6ZM5 10C5 9.73478 5.10536 9.48043 5.29289 9.29289C5.48043 9.10536 5.73478 9 6 9H9C9.26522 9 9.51957 9.10536 9.70711 9.29289C9.89464 9.48043 10 9.73478 10 10C10 10.2652 9.89464 10.5196 9.70711 10.7071C9.51957 10.8946 9.26522 11 9 11H6C5.73478 11 5.48043 10.8946 5.29289 10.7071C5.10536 10.5196 5 10.2652 5 10ZM11 16.0215C11 16.65 11.29 17.211 11.7435 17.5775C11.7117 17.8743 11.7468 18.1744 11.8463 18.4558C11.9458 18.7372 12.1072 18.9927 12.3185 19.2035C12.6363 19.5224 13.0528 19.7242 13.5 19.776C13.503 20.8427 13.5363 21.9092 13.6 22.974C13.625 23.394 14.1285 23.586 14.4325 23.295L15.24 22.52C15.3098 22.4531 15.4028 22.4157 15.4995 22.4157C15.5962 22.4157 15.6892 22.4531 15.759 22.52L16.5665 23.295C16.8705 23.586 17.374 23.394 17.3995 22.974C17.4632 21.9092 17.4965 20.8427 17.4995 19.776C17.9469 19.7243 18.3636 19.5225 18.6815 19.2035C18.8928 18.9927 19.0542 18.7372 19.1537 18.4558C19.2532 18.1744 19.2883 17.8743 19.2565 17.5775C19.4889 17.3902 19.6763 17.1532 19.805 16.8839C19.9336 16.6147 20.0003 16.3199 20 16.0215C20 15.393 19.71 14.832 19.2565 14.4655C19.2884 14.1688 19.2533 13.8687 19.1539 13.5873C19.0545 13.3059 18.8932 13.0503 18.682 12.8395C18.4712 12.6282 18.2157 12.4668 17.9343 12.3673C17.6529 12.2678 17.3528 12.2327 17.056 12.2645C16.8686 12.0323 16.6316 11.8451 16.3623 11.7166C16.093 11.5881 15.7984 11.5216 15.5 11.522C14.8715 11.522 14.3105 11.812 13.944 12.2655C13.6473 12.2336 13.3472 12.2687 13.0658 12.3681C12.7844 12.4675 12.5288 12.6288 12.318 12.84C12.1067 13.0508 11.9453 13.3063 11.8458 13.5877C11.7463 13.8691 11.7112 14.1692 11.743 14.466C11.5108 14.6533 11.3235 14.8902 11.1949 15.1594C11.0663 15.4286 10.9997 15.7232 11 16.0215ZM16.75 16C16.75 16.3315 16.6183 16.6495 16.3839 16.8839C16.1495 17.1183 15.8315 17.25 15.5 17.25C15.1685 17.25 14.8505 17.1183 14.6161 16.8839C14.3817 16.6495 14.25 16.3315 14.25 16C14.25 15.6685 14.3817 15.3505 14.6161 15.1161C14.8505 14.8817 15.1685 14.75 15.5 14.75C15.8315 14.75 16.1495 14.8817 16.3839 15.1161C16.6183 15.3505 16.75 15.6685 16.75 16Z" fill="currentColor"/>
</svg>
