<svg xmlns="http://www.w3.org/2000/svg" width="18" height="18" viewBox="0 0 18 18" fill="none">
    <path
        d="M7.77351 3.15697C8.96437 1.09433 11.6019 0.387622 13.6645 1.57849C15.7271 2.76935 16.4338 5.40683 15.243 7.46947L15.1619 7.60995C16.1236 9.2075 16.2867 11.2222 15.4772 13.0088C15.3593 13.2691 15.1943 13.5548 14.9088 14.0492L14.8795 14.1001C14.8454 14.1592 14.81 14.2206 14.7718 14.274C14.4071 14.7829 13.7336 14.9634 13.1632 14.705C13.1035 14.6779 13.0422 14.6424 12.9831 14.6083L8.33966 11.9274L5.62091 16.6364C5.46558 16.9054 5.12156 16.9976 4.85252 16.8423C4.58348 16.6869 4.4913 16.3429 4.64663 16.0739L7.36538 11.3649L2.72192 8.68397C2.66282 8.64991 2.60147 8.61455 2.54812 8.57632C2.03914 8.21159 1.85869 7.53813 2.11711 6.96778C2.1442 6.908 2.17965 6.84669 2.2138 6.78765L2.24315 6.73682C2.52861 6.24236 2.69359 5.9566 2.86006 5.72429C4.00235 4.13023 5.82815 3.26421 7.69212 3.29793L7.77351 3.15697Z"
        fill="#8C81F2" />
</svg>