<svg xmlns="http://www.w3.org/2000/svg" width="24" height="25" viewBox="0 0 24 25" fill="none">
    <path
        d="M14.181 0.707727C14.0368 0.68119 13.8885 0.686683 13.7467 0.723818C13.6049 0.760954 13.4729 0.828822 13.3603 0.922615C13.2476 1.01641 13.1569 1.13383 13.0946 1.26657C13.0324 1.39931 13.0001 1.54411 13 1.69073V4.56973C11.8707 4.42044 10.7225 4.51404 9.63234 4.84427C8.54214 5.17451 7.53503 5.73375 6.67839 6.4846C5.82175 7.23545 5.13534 8.16058 4.66508 9.1981C4.19482 10.2356 3.95155 11.3616 3.95155 12.5007C3.95155 13.6398 4.19482 14.7658 4.66508 15.8034C5.13534 16.8409 5.82175 17.766 6.67839 18.5169C7.53503 19.2677 8.54214 19.8269 9.63234 20.1572C10.7225 20.4874 11.8707 20.581 13 20.4317V23.3107C13.0001 23.4573 13.0324 23.6021 13.0946 23.7349C13.1569 23.8676 13.2476 23.985 13.3603 24.0788C13.4729 24.1726 13.6049 24.2405 13.7467 24.2776C13.8885 24.3148 14.0368 24.3203 14.181 24.2937C16.9385 23.7863 19.431 22.3287 21.2252 20.1741C23.0194 18.0196 24.0019 15.3045 24.0019 12.5007C24.0019 9.69695 23.0194 6.98182 21.2252 4.82731C19.431 2.6728 16.9385 1.21514 14.181 0.707727ZM2.986 5.46873C3.18011 5.50563 3.35894 5.59922 3.49991 5.73767C3.64089 5.87612 3.73769 6.05323 3.77809 6.24665C3.81849 6.44007 3.80069 6.64112 3.72693 6.82443C3.65317 7.00774 3.52676 7.16508 3.36365 7.27661C3.20054 7.38814 3.00805 7.44884 2.81047 7.45107C2.61289 7.45329 2.41908 7.39693 2.25351 7.2891C2.08793 7.18127 1.95801 7.02681 1.88014 6.84521C1.80228 6.6636 1.77995 6.463 1.816 6.26873C1.84002 6.13924 1.88938 6.01577 1.96125 5.90542C2.03312 5.79506 2.12608 5.69998 2.23479 5.62565C2.3435 5.55132 2.46583 5.49919 2.59474 5.47226C2.72365 5.44533 2.85662 5.44413 2.986 5.46873ZM1.386 9.45573C1.58011 9.49263 1.75894 9.58622 1.89991 9.72467C2.04089 9.86312 2.13769 10.0402 2.17809 10.2337C2.21849 10.4271 2.20069 10.6281 2.12693 10.8114C2.05317 10.9947 1.92676 11.1521 1.76365 11.2636C1.60054 11.3751 1.40805 11.4358 1.21047 11.4381C1.01289 11.4403 0.819082 11.3839 0.653505 11.2761C0.487929 11.1683 0.358008 11.0138 0.280142 10.8322C0.202275 10.6506 0.179954 10.45 0.215995 10.2557C0.240035 10.1265 0.289299 10.0034 0.360971 9.89323C0.432644 9.7831 0.525319 9.68817 0.633699 9.61387C0.74208 9.53958 0.86404 9.48737 0.992609 9.46023C1.12118 9.4331 1.25383 9.43157 1.383 9.45573H1.386ZM10.128 22.3237C10.3223 22.3609 10.5012 22.4548 10.642 22.5937C10.7829 22.7325 10.8795 22.91 10.9195 23.1037C10.9595 23.2974 10.9411 23.4986 10.8668 23.6819C10.7924 23.8652 10.6653 24.0223 10.5017 24.1334C10.338 24.2444 10.1451 24.3045 9.94728 24.3059C9.74949 24.3073 9.55572 24.25 9.39048 24.1413C9.22524 24.0326 9.09596 23.8773 9.01898 23.6951C8.94199 23.5129 8.92077 23.312 8.958 23.1177C9.00793 22.8579 9.15877 22.6285 9.3775 22.4797C9.59622 22.3309 9.86501 22.2748 10.125 22.3237H10.128ZM6.008 2.40073C6.20211 2.43763 6.38094 2.53122 6.52191 2.66967C6.66289 2.80812 6.75969 2.98523 6.80009 3.17865C6.84049 3.37207 6.82269 3.57312 6.74893 3.75643C6.67517 3.93973 6.54876 4.09708 6.38565 4.20861C6.22254 4.32014 6.03005 4.38084 5.83247 4.38307C5.63489 4.38529 5.44108 4.32893 5.27551 4.2211C5.10993 4.11327 4.98001 3.95881 4.90214 3.77721C4.82428 3.5956 4.80195 3.395 4.838 3.20073C4.86202 3.07124 4.91138 2.94777 4.98325 2.83742C5.05512 2.72706 5.14808 2.63198 5.25679 2.55765C5.3655 2.48332 5.48783 2.43119 5.61674 2.40426C5.74565 2.37733 5.87862 2.37613 6.008 2.40073ZM10.182 0.709727C10.3758 0.750085 10.5533 0.847057 10.6919 0.988358C10.8306 1.12966 10.9241 1.30893 10.9608 1.50347C10.9975 1.698 10.9756 1.89904 10.8979 2.08113C10.8202 2.26321 10.6903 2.41814 10.5245 2.52629C10.3587 2.63445 10.1645 2.69095 9.96653 2.68866C9.76858 2.68636 9.57577 2.62537 9.41251 2.5134C9.24926 2.40143 9.12291 2.24353 9.04948 2.05969C8.97604 1.87585 8.95882 1.67436 9 1.48073C9.05501 1.22203 9.21027 0.995654 9.43179 0.851156C9.65332 0.706659 9.92306 0.655806 10.182 0.709727ZM0.233995 14.5467C0.270901 14.3526 0.364486 14.1738 0.502937 14.0328C0.641389 13.8918 0.818501 13.795 1.01192 13.7546C1.20534 13.7142 1.40639 13.732 1.58969 13.8058C1.773 13.8796 1.93035 14.006 2.04188 14.1691C2.15341 14.3322 2.21411 14.5247 2.21633 14.7223C2.21856 14.9198 2.1622 15.1136 2.05437 15.2792C1.94654 15.4448 1.79208 15.5747 1.61047 15.6526C1.42887 15.7304 1.22827 15.7528 1.034 15.7167C0.904508 15.6927 0.781042 15.6433 0.670684 15.5715C0.560326 15.4996 0.465251 15.4066 0.390918 15.2979C0.316584 15.1892 0.264456 15.0669 0.237527 14.938C0.210598 14.8091 0.209398 14.6761 0.233995 14.5467ZM1.915 18.5097C1.9519 18.3156 2.04549 18.1368 2.18394 17.9958C2.32239 17.8548 2.4995 17.758 2.69292 17.7176C2.88633 17.6772 3.08739 17.695 3.27069 17.7688C3.454 17.8426 3.61135 17.969 3.72288 18.1321C3.8344 18.2952 3.89511 18.4877 3.89733 18.6853C3.89956 18.8828 3.8432 19.0766 3.73537 19.2422C3.62754 19.4078 3.47308 19.5377 3.29147 19.6156C3.10987 19.6934 2.90927 19.7158 2.715 19.6797C2.58551 19.6557 2.46204 19.6063 2.35168 19.5345C2.24133 19.4626 2.14625 19.3696 2.07192 19.2609C1.99758 19.1522 1.94546 19.0299 1.91853 18.901C1.8916 18.7721 1.8904 18.6391 1.915 18.5097ZM4.967 21.5007C5.0039 21.3066 5.09749 21.1278 5.23594 20.9868C5.37439 20.8458 5.5515 20.749 5.74492 20.7086C5.93833 20.6682 6.13939 20.686 6.32269 20.7598C6.506 20.8336 6.66335 20.96 6.77488 21.1231C6.8864 21.2862 6.94711 21.4787 6.94933 21.6763C6.95156 21.8738 6.8952 22.0676 6.78737 22.2332C6.67954 22.3988 6.52508 22.5287 6.34347 22.6066C6.16187 22.6845 5.96127 22.7068 5.767 22.6707C5.63751 22.6467 5.51404 22.5973 5.40368 22.5255C5.29333 22.4536 5.19825 22.3606 5.12392 22.2519C5.04958 22.1432 4.99746 22.0209 4.97053 21.892C4.9436 21.7631 4.9424 21.6301 4.967 21.5007Z"
        fill="#8C81F2" />
    <path
        d="M10 9.29753C10 8.68513 10.6624 8.30191 11.1933 8.60717L16.7628 11.8096C17.2953 12.1158 17.2953 12.8842 16.7628 13.1904L11.1933 16.3928C10.6624 16.6981 10 16.3149 10 15.7025V9.29753Z"
        fill="white" />
</svg>