<svg xmlns="http://www.w3.org/2000/svg" width="16" height="16" viewBox="0 0 16 16" fill="none">
    <path d="M11.4065 7.86884C11.1123 7.57726 11.1102 7.10239 11.4018 6.80819C11.6934 6.514 12.1682 6.51188 12.4624 6.80346L11.4065 7.86884ZM13.2856 8.67526L13.8135 8.14257V8.14257L13.2856 8.67526ZM13.2856 13.6609L13.8135 14.1936V14.1936L13.2856 13.6609ZM12.4624 15.5327C12.1682 15.8243 11.6934 15.8222 11.4018 15.528C11.1102 15.2338 11.1123 14.7589 11.4065 14.4673L12.4624 15.5327ZM14.9848 10.9279L15.7287 10.8331L15.7287 10.8331L14.9848 10.9279ZM14.9848 11.4082L15.7287 11.503L15.7287 11.503L14.9848 11.4082ZM13.4538 0.838262C13.868 0.838262 14.2038 1.17405 14.2038 1.58826C14.2038 2.00248 13.868 2.33826 13.4538 2.33826V0.838262ZM12.4624 6.80346L13.8135 8.14257L12.7576 9.20795L11.4065 7.86884L12.4624 6.80346ZM13.8135 14.1936L12.4624 15.5327L11.4065 14.4673L12.7576 13.1282L13.8135 14.1936ZM13.8135 8.14257C14.3397 8.66411 14.7802 9.09908 15.0929 9.48839C15.415 9.88954 15.6626 10.3142 15.7287 10.8331L14.2408 11.0228C14.224 10.8909 14.1607 10.7232 13.9233 10.4276C13.6765 10.1203 13.3089 9.75432 12.7576 9.20795L13.8135 8.14257ZM12.7576 13.1282C13.3089 12.5818 13.6765 12.2159 13.9233 11.9085C14.1607 11.613 14.224 11.4453 14.2408 11.3134L15.7287 11.503C15.6626 12.022 15.415 12.4466 15.0929 12.8478C14.7802 13.2371 14.3397 13.672 13.8135 14.1936L12.7576 13.1282ZM14.4117 11.9181H5.78991V10.4181H14.4117V11.9181ZM5.78991 0.838262H13.4538V2.33826H5.78991V0.838262ZM0.25 6.37817C0.25 3.31856 2.7303 0.838262 5.78991 0.838262V2.33826C3.55873 2.33826 1.75 4.14699 1.75 6.37817H0.25ZM5.78991 11.9181C2.7303 11.9181 0.25 9.43777 0.25 6.37817H1.75C1.75 8.60935 3.55873 10.4181 5.78991 10.4181V11.9181ZM15.7287 10.8331C15.7429 10.9443 15.75 11.0562 15.75 11.1681L14.25 11.1681C14.25 11.1195 14.2469 11.071 14.2408 11.0228L15.7287 10.8331ZM15.75 11.1681C15.75 11.28 15.7429 11.3918 15.7287 11.503L14.2408 11.3134C14.2469 11.2651 14.25 11.2166 14.25 11.1681L15.75 11.1681ZM14.4117 10.4181H15V11.9181H14.4117V10.4181Z" fill="#8C81F2" />
</svg>
