<svg width="24" height="24" viewBox="0 0 24 24" fill="none" xmlns="http://www.w3.org/2000/svg">
      <path
        d="M6 15C7.65685 15 9 13.6568 9 12C9 10.3431 7.65685 9 6 9C4.34315 9 3 10.3431 3 12C3 13.6568 4.34315 15 6 15Z"
        stroke="white" stroke-width="1.8" />
      <path
        d="M18 9C19.6568 9 21 7.65685 21 6C21 4.34315 19.6568 3 18 3C16.3432 3 15 4.34315 15 6C15 7.65685 16.3432 9 18 9Z"
        stroke="white" stroke-width="1.8" />
      <path
        d="M18 21C19.6568 21 21 19.6568 21 18C21 16.3432 19.6568 15 18 15C16.3432 15 15 16.3432 15 18C15 19.6568 16.3432 21 18 21Z"
        stroke="white" stroke-width="1.8" />
      <path d="M8.7002 10.7001L15.3002 7.30005" stroke="white" stroke-width="1.8" />
      <path d="M8.7002 13.3001L15.3002 16.7" stroke="white" stroke-width="1.8" />
</svg>
