<svg xmlns="http://www.w3.org/2000/svg" width="21" height="21" viewBox="0 0 21 21" fill="none">
    <path
        d="M2.66576 18.6319C2.00573 18.0112 1.4771 17.2643 1.11124 16.4354C0.745381 15.6066 0.549745 14.7127 0.535942 13.8067C0.522138 12.9008 0.690448 12.0014 1.03088 11.1617C1.37132 10.3221 1.87695 9.55941 2.51776 8.91891L9.31776 2.11891C9.7659 1.66136 10.3003 1.29719 10.8901 1.04749C11.4799 0.797777 12.1133 0.66748 12.7538 0.664129C13.3942 0.660778 14.029 0.784441 14.6213 1.02796C15.2137 1.27149 15.7519 1.63004 16.2048 2.08288C16.6577 2.53572 17.0163 3.07387 17.2599 3.66619C17.5035 4.25851 17.6273 4.89325 17.624 5.5337C17.6208 6.17416 17.4906 6.80761 17.241 7.39742C16.9913 7.98723 16.6272 8.5217 16.1698 8.96991L9.36976 15.7699C8.81316 16.3013 8.07325 16.5977 7.30376 16.5977C6.53426 16.5977 5.79435 16.3013 5.23776 15.7699C4.6908 15.2213 4.38366 14.4781 4.38366 13.7034C4.38366 12.9287 4.6908 12.1856 5.23776 11.6369L10.6728 6.20191C10.8614 6.01975 11.114 5.91896 11.3762 5.92124C11.6384 5.92352 11.8892 6.02869 12.0746 6.21409C12.26 6.3995 12.3652 6.65031 12.3674 6.91251C12.3697 7.17471 12.2689 7.42731 12.0868 7.61591L6.64976 13.0509C6.47877 13.224 6.38288 13.4576 6.38288 13.7009C6.38288 13.9442 6.47877 14.1778 6.64976 14.3509C6.8253 14.5173 7.05793 14.61 7.29976 14.61C7.54159 14.61 7.77422 14.5173 7.94976 14.3509L14.7498 7.55091C15.2703 7.01477 15.559 6.29535 15.5535 5.5481C15.548 4.80085 15.2487 4.08576 14.7203 3.55736C14.1919 3.02896 13.4768 2.72967 12.7296 2.72416C11.9823 2.71865 11.2629 3.00736 10.7268 3.52791L3.92676 10.3279C3.47501 10.7789 3.11845 11.316 2.87824 11.9073C2.63803 12.4987 2.51905 13.1323 2.52838 13.7706C2.53771 14.4088 2.67514 15.0387 2.93254 15.6228C3.18993 16.2069 3.56203 16.7334 4.02676 17.1709C4.97847 18.0101 6.21713 18.4501 7.485 18.3993C8.75287 18.3484 9.95231 17.8107 10.8338 16.8979L18.8178 8.91391C18.91 8.8184 19.0203 8.74222 19.1424 8.68981C19.2644 8.6374 19.3956 8.60982 19.5284 8.60866C19.6611 8.60751 19.7928 8.63281 19.9157 8.68309C20.0386 8.73337 20.1503 8.80762 20.2442 8.90152C20.338 8.99541 20.4123 9.10706 20.4626 9.22996C20.5129 9.35285 20.5382 9.48453 20.537 9.61731C20.5359 9.75009 20.5083 9.88131 20.4559 10.0033C20.4035 10.1253 20.3273 10.2357 20.2318 10.3279L12.2478 18.3119C10.9155 19.6463 9.10839 20.3979 7.22276 20.4019C5.53332 20.4163 3.90258 19.7829 2.66576 18.6319Z"
        fill="currentColor" />
</svg>