<svg width="22" height="22" viewBox="0 0 22 22" fill="none" xmlns="http://www.w3.org/2000/svg">
<path fill-rule="evenodd" clip-rule="evenodd" d="M22 11C22 13.9494 20.8392 16.6276 18.9497 18.6029C16.954 20.689 14.1455 21.9909 11.0328 22H11H10.9672C7.85447 21.9909 5.04595 20.689 3.05035 18.6029C1.16075 16.6276 0 13.9494 0 11C0 4.92487 4.92487 0 11 0C17.0751 0 22 4.92487 22 11ZM17.6673 16.5C16.0822 14.5805 13.6839 13.3571 11 13.3571C8.31609 13.3571 5.91791 14.5805 4.33266 16.5C5.91791 18.4195 8.31609 19.6429 11 19.6429C13.6839 19.6429 16.0822 18.4195 17.6673 16.5ZM11.0002 11.7857C13.1699 11.7857 14.9288 10.0268 14.9288 7.8571C14.9288 5.68741 13.1699 3.92852 11.0002 3.92852C8.8305 3.92852 7.07162 5.68741 7.07162 7.8571C7.07162 10.0268 8.8305 11.7857 11.0002 11.7857Z" fill="currentColor"/>
</svg>
