<svg width="60" height="60" viewBox="0 0 60 60" xmlns="http://www.w3.org/2000/svg">
    <path d="M0 30.0899C0 45.6002 11.7466 58.3703 26.8345 60H33.3733C47.2902 58.4981 58.3653 47.5175 60 33.6489V26.5269C58.2374 11.5878 45.5236 0 30.1039 0C13.4772 0 0 13.4691 0 30.0859" fill="#FFF07D"/>
    <mask id="mask0_66_968" style="mask-type:alpha" maskUnits="userSpaceOnUse" x="0" y="0" width="60" height="60">
        <path d="M0 30.0899C0 45.6002 11.7466 58.3703 26.8345 60H33.3733C47.2902 58.4981 58.3653 47.5175 60 33.6489V26.5269C58.2374 11.5878 45.5236 0 30.1039 0C13.4772 0 0 13.4691 0 30.0859" fill="#835E5E"/>
    </mask>
    <g mask="url(#mask0_66_968)">
        <path d="M62.7248 47.062L53.4283 30.9725C53.0086 30.2496 52.2372 29.8022 51.3979 29.8022H32.8048C31.9695 29.8022 31.1941 30.2496 30.7744 30.9725L21.4778 47.062C21.0582 47.785 21.0582 48.6798 21.4778 49.4027L30.7744 65.4922C31.1941 66.2152 31.9655 66.6626 32.8048 66.6626H51.3979C52.2332 66.6626 53.0086 66.2152 53.4283 65.4922L62.7248 49.4027C63.1445 48.6798 63.1445 47.785 62.7248 47.062Z" fill="black"/>
        <path d="M42.0095 10.7769L32.7129 -5.31255C32.2933 -6.03554 31.5219 -6.48291 30.6826 -6.48291H12.0894C11.2541 -6.48291 10.4787 -6.03554 10.0591 -5.31255L0.762502 10.7769C0.342838 11.4999 0.342838 12.3946 0.762502 13.1176L10.0591 29.2071C10.4787 29.9301 11.2501 30.3775 12.0894 30.3775H30.6826C31.5179 30.3775 32.2933 29.9301 32.7129 29.2071L42.0095 13.1176C42.4292 12.3946 42.4292 11.4999 42.0095 10.7769Z" fill="black"/>
        <path d="M10.7305 23.2714H13.8999L13.808 23.1076C13.3443 22.3007 12.533 21.7255 11.4259 21.7255C10.3308 21.7255 10.1749 22.2968 10.6425 23.1116L10.7345 23.2714H10.7305ZM9.50744 25.2446L8.37634 23.2754C7.08537 21.0265 8.18449 19.8202 10.3268 19.8162C12.4811 19.8162 14.9511 21.0145 16.242 23.2634L17.2173 24.961L11.7057 24.969L11.8855 25.2846C12.3731 26.1314 13.3004 26.7345 14.991 26.7305C15.7145 26.7305 16.5138 26.6866 17.557 26.2952L18.6401 28.1765C17.9367 28.5081 17.0134 28.6359 15.8464 28.6399C13.4323 28.6399 10.9023 27.6692 9.50744 25.2446Z" fill="#FFF07D"/>
        <path d="M25.1108 26.1593L22.8806 22.2728C22.2891 21.9612 21.6376 21.7575 21.0341 21.7575C19.939 21.7575 19.7911 22.3287 20.3067 23.2274L21.4458 25.2126C21.9614 26.1114 22.7607 26.6786 23.8558 26.6786C24.4594 26.6786 24.875 26.4749 25.1068 26.1593M19.2475 25.5202L17.7567 22.9239C16.6016 20.9147 17.429 19.8082 19.3914 19.8082C20.2467 19.8082 21.0581 20.0119 21.7935 20.3834L19.4154 16.2452H21.7895L28.7999 28.4601H26.6056L26.2899 27.9129C26.0141 28.3802 25.4066 28.6359 24.4514 28.6359C22.4889 28.6359 20.3986 27.5374 19.2435 25.5242" fill="#FFF07D"/>
        <path d="M26.126 42.9678L29.8511 36.5289H28.6001L29.6153 34.7753H30.8702L31.7216 33.3014C32.8327 31.384 34.6552 31.0885 35.6544 31.0885C36.0261 31.0885 36.4138 31.1124 36.8095 31.1684L35.7943 32.9219C35.7024 32.9139 35.4986 32.9059 35.3627 32.9059C34.4434 32.9059 34.0757 33.2175 33.7999 33.6928L33.1724 34.7753H34.7592L33.744 36.5289H32.1572L28.4322 42.9678H26.1221H26.126Z" fill="#FFF07D"/>
        <path d="M36.9735 33.2454L38.1285 31.2442H40.5266L39.3715 33.2414H36.9735V33.2454ZM31.4099 42.9638L36.1501 34.7713H38.4603L33.7201 42.9638H31.4099Z" fill="#FFF07D"/>
        <path d="M34.6914 42.9598L40.6107 38.7297L39.6555 34.7673L42.3493 34.7633L42.8769 37.1479L46.1662 34.7633L48.8281 34.7593L43.3005 38.7177L44.3157 42.9518L41.6339 42.9558L41.0383 40.2915L37.3653 42.9598H34.6914Z" fill="#FFF07D"/>
    </g>
</svg>
