<svg version="1.1" id="Layer_1" xmlns="http://www.w3.org/2000/svg"
    xmlns:xlink="http://www.w3.org/1999/xlink" x="0px" y="0px"
    width="200" viewBox="0 0 566 108" enable-background="new 0 0 566 108" xml:space="preserve">
<path fill="#8c81f2" opacity="1.000000" stroke="none" 
	d="
M67.150818,20.132568 
	C67.150856,18.009338 67.150856,16.367868 67.150856,14.361276 
	C72.142616,14.361276 76.837761,14.361276 82.029419,14.361276 
	C82.029419,27.530205 82.029419,40.624123 82.029419,53.718037 
	C82.029419,66.849228 82.029419,79.980415 82.029419,93.638321 
	C80.170921,93.217117 78.625114,92.976280 77.149223,92.512810 
	C71.606674,90.772285 66.675201,90.130997 60.593029,92.683220 
	C47.499763,98.177460 31.367985,86.953781 29.125074,71.925163 
	C26.417677,53.784241 39.463448,39.534180 57.596512,41.064011 
	C60.625340,41.319546 63.563461,42.650223 67.150787,43.654022 
	C67.150787,36.036560 67.150787,28.325445 67.150818,20.132568 
M69.012009,65.014610 
	C68.297974,63.175877 67.840378,61.179501 66.824226,59.526482 
	C63.004135,53.312126 55.671940,51.117825 49.531857,54.160854 
	C42.741707,57.526058 39.566074,65.718178 42.313107,72.782936 
	C45.149387,80.077217 51.980602,83.740761 59.005466,81.767029 
	C62.214497,80.865402 65.441246,80.026810 68.270615,79.264526 
	C68.515747,75.108841 68.788246,70.489113 69.012009,65.014610 
z"/>
<path fill="#1F1F1F" opacity="1.000000" stroke="none" 
	d="
M144.510895,71.988892 
	C144.510941,62.366669 144.510941,53.241917 144.510941,43.797058 
	C148.145279,43.797058 151.390488,43.797058 154.785172,43.797058 
	C154.912125,45.115238 155.038086,46.423023 155.206833,48.175098 
	C164.047623,41.638958 172.877365,39.209667 182.159393,47.937359 
	C186.988235,43.703255 193.086655,41.506931 200.033249,42.505188 
	C206.884216,43.489697 210.723953,47.022266 211.032074,53.943005 
	C211.496750,64.380714 211.153244,74.854393 211.153244,85.661667 
	C208.113388,85.661667 204.878006,85.661667 200.900665,85.661667 
	C200.900665,77.346069 200.969376,68.772789 200.880783,60.201126 
	C200.797028,52.095383 194.652084,48.305740 187.798309,52.432049 
	C185.947098,53.546574 184.218597,56.452232 184.119736,58.612900 
	C183.710632,67.552864 183.948135,76.522423 183.948135,85.743454 
	C180.281845,85.743454 176.893921,85.743454 173.056824,85.743454 
	C173.056824,77.151146 173.112625,68.706062 173.039658,60.262089 
	C172.978256,53.155987 171.280746,50.989574 166.127930,51.057186 
	C160.529510,51.130642 155.306259,55.932735 155.277451,61.143730 
	C155.232559,69.267258 155.265579,77.391212 155.265579,85.759857 
	C151.675797,85.759857 148.403656,85.759857 144.510834,85.759857 
	C144.510834,81.355293 144.510834,76.920822 144.510895,71.988892 
z"/>
<path fill="#1E1E1E" opacity="1.000000" stroke="none" 
	d="
M333.122192,41.010841 
	C333.076813,46.029644 333.031433,51.048443 332.978882,56.942734 
	C333.038422,59.216393 333.105164,60.614567 333.171875,62.012741 
	C333.171875,69.811699 333.171875,77.610649 333.171875,85.707443 
	C329.475922,85.707443 326.211975,85.707443 322.500824,85.707443 
	C322.275116,84.706604 321.980621,83.400627 321.745422,82.357597 
	C305.915771,89.534912 291.458649,91.273911 284.003784,71.374329 
	C280.673248,62.484074 283.037018,53.534599 290.702393,47.456699 
	C300.432281,39.741806 310.990601,40.992844 321.793457,47.150131 
	C321.793457,38.100777 321.793457,29.536543 321.793457,20.492769 
	C325.162231,20.492769 328.139740,20.321377 331.070587,20.615391 
	C331.787567,20.687323 332.351685,22.283085 332.972931,24.045618 
	C333.013947,30.278940 333.068085,35.644890 333.122192,41.010841 
M312.227600,51.860115 
	C305.162720,50.179005 299.202179,52.222698 296.120239,57.382858 
	C293.161469,62.336788 293.652130,69.342873 297.267334,73.762230 
	C300.767242,78.040665 308.178284,79.691635 313.673859,77.417137 
	C319.388428,75.052017 322.016846,70.631340 321.841217,63.293884 
	C321.776947,57.278553 318.544434,53.789902 312.227600,51.860115 
z"/>
<path fill="#212121" opacity="1.000000" stroke="none" 
	d="
M122.043427,43.760223 
	C129.335098,46.243530 133.148941,51.077091 133.311127,58.364880 
	C133.510590,67.327751 133.358749,76.298439 133.358749,85.639694 
	C130.165375,85.639694 126.938126,85.639694 123.241135,85.639694 
	C123.137337,84.891991 122.990578,83.834793 122.821541,82.617142 
	C122.371170,82.745941 121.840775,82.750282 121.518829,83.011520 
	C115.508743,87.888451 108.646545,88.128105 101.665871,86.204063 
	C93.901230,84.063950 90.317650,78.435791 90.994347,70.451584 
	C91.567017,63.694637 96.260231,58.937492 103.746872,57.997913 
	C106.850182,57.608448 110.067986,57.659000 113.184319,57.983643 
	C116.072357,58.284508 118.894531,59.217724 121.981743,59.926697 
	C122.486275,55.569714 120.666870,52.369743 116.485077,51.986301 
	C111.280487,51.509071 105.969673,52.083038 100.712646,52.355663 
	C99.283524,52.429775 97.882896,53.053375 96.223618,53.489300 
	C96.223618,50.508915 96.223618,47.879723 96.223618,44.990288 
	C104.612968,42.207191 113.024956,41.066467 122.043427,43.760223 
M108.932625,65.867729 
	C105.002663,66.052147 102.265083,68.262016 102.562393,71.983421 
	C102.742821,74.241837 104.809517,77.361183 106.839149,78.256233 
	C111.516594,80.318947 116.374023,79.125244 120.371658,75.881218 
	C123.671509,73.203438 123.044418,68.706879 119.011711,67.250854 
	C116.137268,66.213020 112.884895,66.221924 108.932625,65.867729 
z"/>
<path fill="#1F1F1F" opacity="1.000000" stroke="none" 
	d="
M362.977814,42.189365 
	C369.688568,42.274025 376.329346,42.656422 381.744354,47.377861 
	C388.261841,53.060581 389.506470,60.484879 388.851135,68.892197 
	C376.880432,68.892197 365.112885,68.892197 353.300781,68.892197 
	C354.140289,74.329643 357.680695,77.816727 363.502655,77.927971 
	C370.554596,78.062714 377.621155,77.431763 384.736969,77.129784 
	C385.612640,85.082596 385.644226,85.329742 377.219391,86.406784 
	C372.136902,87.056526 366.873688,87.385414 361.802826,86.834877 
	C344.470612,84.953117 336.653168,66.681801 346.562256,50.305634 
	C348.730896,48.236465 350.485840,46.675869 352.567230,45.076935 
	C354.265381,44.383743 355.637146,43.728886 357.391998,43.124046 
	C359.509338,42.845829 361.243591,42.517601 362.977814,42.189365 
M378.050049,58.907608 
	C375.284485,52.133915 368.958618,49.466942 360.859314,51.660042 
	C355.254456,53.177708 352.961670,56.234295 353.617462,61.562317 
	C360.209930,61.562317 366.829865,61.562393 373.449799,61.562210 
	C374.112549,61.562191 374.868652,61.765289 375.417542,61.514858 
	C376.397766,61.067623 377.252899,60.346283 378.050049,58.907608 
z"/>
<path fill="#1F1F1F" opacity="1.000000" stroke="none" 
	d="
M543.626465,77.460098 
	C534.132690,88.964439 515.385071,90.674728 504.516113,81.201195 
	C497.445587,75.038445 496.287323,66.950211 498.268097,58.422604 
	C500.327606,49.556099 506.726654,44.733028 515.370300,43.097694 
	C523.929138,41.478405 532.323975,42.063850 539.447571,47.823349 
	C547.991394,54.731098 549.628174,66.353775 543.626465,77.460098 
M522.483826,51.011456 
	C521.332275,51.124104 520.148376,51.102558 519.034424,51.371067 
	C511.482635,53.191311 507.943695,58.881889 509.111511,67.220184 
	C510.089600,74.203697 515.253113,78.538139 522.525757,78.480553 
	C530.100159,78.420570 534.973816,73.738304 535.680054,65.842804 
	C536.436646,57.385025 532.443542,52.608799 522.483826,51.011456 
z"/>
<path fill="#222222" opacity="1.000000" stroke="none" 
	d="
M442.184509,48.283386 
	C436.943054,61.046158 431.831696,73.446297 426.773468,85.717537 
	C426.205627,85.840912 425.883636,85.966393 425.559082,85.973305 
	C416.236908,86.171867 416.235382,86.170555 412.623840,77.431435 
	C408.070282,66.412880 403.519501,55.393181 398.595673,43.473835 
	C402.128265,43.473835 405.215576,43.170261 408.185547,43.628040 
	C409.322449,43.803280 410.580322,45.558693 411.118652,46.867344 
	C414.518066,55.131016 417.730865,63.471462 421.416656,72.831345 
	C424.607483,64.625381 427.802704,57.473701 430.135132,50.050922 
	C431.807220,44.729630 434.500854,42.312901 440.077972,43.428665 
	C441.164520,43.646046 442.331787,43.459934 443.977020,43.459934 
	C443.310303,45.248955 442.812469,46.584850 442.184509,48.283386 
z"/>
<path fill="#272727" opacity="1.000000" stroke="none" 
	d="
M243.218994,78.893547 
	C243.218994,66.965569 243.218994,55.525486 243.218994,43.763641 
	C246.980240,43.763641 250.370880,43.763641 253.925018,43.763641 
	C254.040497,45.564133 254.145706,47.204433 254.222412,48.400391 
	C259.862671,46.539204 265.637360,44.633656 272.035278,42.522461 
	C272.035278,46.486580 272.035278,49.082680 272.035278,51.861279 
	C271.023804,51.986012 270.051910,52.109234 269.079163,52.225292 
	C257.278870,53.633236 254.562057,56.640762 254.561951,68.298149 
	C254.561905,74.081619 254.561935,79.865089 254.561935,85.833420 
	C250.652359,85.833420 247.220245,85.833420 243.218979,85.833420 
	C243.218979,83.595383 243.218979,81.488411 243.218994,78.893547 
z"/>
<path fill="#282828" opacity="1.000000" stroke="none" 
	d="
M232.858185,65.999710 
	C232.858185,72.785408 232.858185,79.071251 232.858185,85.691391 
	C229.035431,85.691391 225.467239,85.691391 221.574005,85.691391 
	C221.574005,71.927292 221.574005,58.057384 221.574005,43.808022 
	C225.066437,43.808022 228.620972,43.808022 232.858185,43.808022 
	C232.858185,51.043064 232.858185,58.271458 232.858185,65.999710 
z"/>
<path fill="#282828" opacity="1.000000" stroke="none" 
	d="
M475.432007,45.607506 
	C478.997650,44.347610 482.551208,43.528072 486.633728,42.586540 
	C486.633728,57.682552 486.633728,71.535065 486.633728,85.709351 
	C483.131256,85.709351 479.561340,85.709351 475.419891,85.709351 
	C475.419891,72.533142 475.419891,59.290501 475.432007,45.607506 
z"/>
<path fill="#212121" opacity="1.000000" stroke="none" 
	d="
M479.482727,35.715595 
	C475.271576,33.863152 473.960358,30.928085 475.625183,27.101274 
	C477.156128,23.582293 480.317566,22.990900 483.585632,24.124098 
	C486.919312,25.280064 487.956940,28.118208 487.107666,31.369736 
	C486.160736,34.995232 483.434967,36.225605 479.482727,35.715595 
z"/>
<path fill="#202020" opacity="1.000000" stroke="none" 
	d="
M222.190872,33.634415 
	C220.165024,30.156818 220.193420,26.824261 223.351578,25.062635 
	C225.264420,23.995644 228.715057,23.931341 230.542389,25.004393 
	C232.083694,25.909479 233.132614,29.199409 232.900085,31.264948 
	C232.375839,35.921757 227.439789,37.024925 222.190872,33.634415 
z"/>
<path fill="#292929" opacity="1.000000" stroke="none" 
	d="
M464.036713,81.891045 
	C462.303650,83.512405 460.733521,85.196167 458.835205,85.745293 
	C458.016266,85.982178 455.773224,84.023277 455.522156,82.788399 
	C455.224915,81.326424 455.917969,79.102646 456.997986,78.033920 
	C459.502411,75.555634 462.482971,77.136955 464.036713,81.891045 
z"/>
</svg>