<svg width="140" height="60" viewBox="0 0 140 60" fill="none" xmlns="http://www.w3.org/2000/svg">
<mask id="path-1-inside-1_109_4719" fill="white">
<path d="M0.5 30.0899C0.5 45.6002 12.2466 58.3703 27.3345 60H33.8733C47.7902 58.4981 58.8653 47.5175 60.5 33.6489V26.5269C58.7374 11.5878 46.0236 0 30.6039 0C13.9772 0 0.5 13.4691 0.5 30.0859"/>
</mask>
<path d="M27.3345 60L27.2271 60.9942L27.2807 61H27.3345V60ZM33.8733 60V61H33.9271L33.9806 60.9942L33.8733 60ZM60.5 33.6489L61.4931 33.766L61.5 33.7076V33.6489H60.5ZM60.5 26.5269H61.5V26.4681L61.4931 26.4097L60.5 26.5269ZM-0.5 30.0899C-0.5 46.117 11.6375 59.3103 27.2271 60.9942L27.4419 59.0058C12.8557 57.4303 1.5 45.0834 1.5 30.0899H-0.5ZM27.3345 61H33.8733V59H27.3345V61ZM33.9806 60.9942C48.3611 59.4423 59.8038 48.0978 61.4931 33.766L59.5069 33.5318C57.9268 46.9372 47.2192 57.5539 33.766 59.0058L33.9806 60.9942ZM61.5 33.6489V26.5269H59.5V33.6489H61.5ZM61.4931 26.4097C59.6718 10.9726 46.536 -1 30.6039 -1V1C45.5111 1 57.8031 12.2029 59.5069 26.644L61.4931 26.4097ZM30.6039 -1C13.4255 -1 -0.5 12.9163 -0.5 30.0859H1.5C1.5 14.022 14.5289 1 30.6039 1V-1Z" fill="black" mask="url(#path-1-inside-1_109_4719)"/>
<mask id="mask0_109_4719" style="mask-type:alpha" maskUnits="userSpaceOnUse" x="0" y="0" width="61" height="60">
<path d="M0.5 30.0899C0.5 45.6002 12.2466 58.3703 27.3345 60H33.8733C47.7902 58.4981 58.8653 47.5175 60.5 33.6489V26.5269C58.7374 11.5878 46.0236 0 30.6039 0C13.9772 0 0.5 13.4691 0.5 30.0859" fill="#835E5E"/>
</mask>
<g mask="url(#mask0_109_4719)">
<path d="M63.2248 47.0621L53.9283 30.9726C53.5086 30.2496 52.7372 29.8022 51.8979 29.8022H33.3048C32.4695 29.8022 31.6941 30.2496 31.2744 30.9726L21.9778 47.0621C21.5582 47.7851 21.5582 48.6798 21.9778 49.4028L31.2744 65.4923C31.6941 66.2153 32.4655 66.6626 33.3048 66.6626H51.8979C52.7332 66.6626 53.5086 66.2153 53.9283 65.4923L63.2248 49.4028C63.6445 48.6798 63.6445 47.7851 63.2248 47.0621Z" fill="black"/>
<path d="M42.5095 10.7769L33.2129 -5.31255C32.7933 -6.03554 32.0219 -6.48291 31.1826 -6.48291H12.5894C11.7541 -6.48291 10.9787 -6.03554 10.5591 -5.31255L1.2625 10.7769C0.842838 11.4999 0.842838 12.3946 1.2625 13.1176L10.5591 29.2071C10.9787 29.9301 11.7501 30.3775 12.5894 30.3775H31.1826C32.0179 30.3775 32.7933 29.9301 33.2129 29.2071L42.5095 13.1176C42.9292 12.3946 42.9292 11.4999 42.5095 10.7769Z" fill="black"/>
<path d="M11.2305 23.2713H14.3999L14.308 23.1075C13.8443 22.3007 13.033 21.7255 11.9259 21.7255C10.8308 21.7255 10.6749 22.2967 11.1425 23.1115L11.2345 23.2713H11.2305ZM10.0074 25.2446L8.87634 23.2753C7.58537 21.0265 8.68449 19.8202 10.8268 19.8162C12.9811 19.8162 15.4511 21.0145 16.742 23.2633L17.7173 24.961L12.2057 24.9689L12.3855 25.2845C12.8731 26.1313 13.8004 26.7345 15.491 26.7305C16.2145 26.7305 17.0138 26.6865 18.057 26.2951L19.1401 28.1765C18.4367 28.508 17.5134 28.6358 16.3464 28.6398C13.9323 28.6398 11.4023 27.6692 10.0074 25.2446Z" fill="#FFF07D"/>
<path d="M25.611 26.1592L23.3807 22.2727C22.7892 21.9611 22.1377 21.7574 21.5342 21.7574C20.4391 21.7574 20.2912 22.3286 20.8068 23.2273L21.9459 25.2126C22.4615 26.1113 23.2608 26.6785 24.356 26.6785C24.9595 26.6785 25.3751 26.4748 25.607 26.1592M19.7477 25.5201L18.2568 22.9238C17.1018 20.9146 17.9291 19.8081 19.8915 19.8081C20.7469 19.8081 21.5582 20.0118 22.2936 20.3833L19.9155 16.2451H22.2896L29.3 28.46H27.1058L26.79 27.9128C26.5142 28.3801 25.9067 28.6358 24.9515 28.6358C22.9891 28.6358 20.8987 27.5373 19.7437 25.5241" fill="#FFF07D"/>
<path d="M26.626 42.9677L30.3511 36.5288H29.1001L30.1153 34.7752H31.3702L32.2216 33.3013C33.3327 31.384 35.1552 31.0884 36.1544 31.0884C36.5261 31.0884 36.9138 31.1123 37.3095 31.1683L36.2943 32.9218C36.2024 32.9138 35.9986 32.9058 35.8627 32.9058C34.9434 32.9058 34.5757 33.2174 34.2999 33.6927L33.6724 34.7752H35.2592L34.244 36.5288H32.6572L28.9322 42.9677H26.6221H26.626Z" fill="#FFF07D"/>
<path d="M37.4735 33.2453L38.6285 31.2441H41.0266L39.8715 33.2413H37.4735V33.2453ZM31.9099 42.9637L36.6501 34.7712H38.9603L34.2201 42.9637H31.9099Z" fill="#FFF07D"/>
<path d="M35.1914 42.9598L41.1107 38.7297L40.1555 34.7673L42.8493 34.7633L43.3769 37.1479L46.6662 34.7633L49.3281 34.7593L43.8005 38.7177L44.8157 42.9518L42.1339 42.9558L41.5383 40.2915L37.8653 42.9598H35.1914Z" fill="#FFF07D"/>
</g>
<path d="M88.6719 37.3359V40.5H77.334V37.3359H88.6719ZM78.5645 19.1719V40.5H74.5361V19.1719H78.5645ZM87.1924 27.9756V31.0664H77.334V27.9756H87.1924ZM88.6279 19.1719V22.3506H77.334V19.1719H88.6279ZM100.391 37.1309V18H104.287V40.5H100.771L100.391 37.1309ZM90.21 32.7656V32.458C90.21 31.2471 90.3467 30.1484 90.6201 29.1621C90.9033 28.166 91.3135 27.3115 91.8506 26.5986C92.3877 25.8857 93.0371 25.334 93.7988 24.9434C94.5703 24.5527 95.4443 24.3574 96.4209 24.3574C97.3682 24.3574 98.1934 24.5479 98.8965 24.9287C99.6094 25.3096 100.215 25.8516 100.713 26.5547C101.221 27.2578 101.626 28.0928 101.929 29.0596C102.231 30.0166 102.451 31.0713 102.588 32.2236V33.0586C102.451 34.1816 102.231 35.2119 101.929 36.1494C101.626 37.0869 101.221 37.9072 100.713 38.6104C100.215 39.3037 99.6094 39.8408 98.8965 40.2217C98.1836 40.6025 97.3486 40.793 96.3916 40.793C95.4248 40.793 94.5557 40.5928 93.7842 40.1924C93.0225 39.792 92.373 39.2305 91.8359 38.5078C91.3086 37.7852 90.9033 36.9355 90.6201 35.959C90.3467 34.9824 90.21 33.918 90.21 32.7656ZM94.0918 32.458V32.7656C94.0918 33.4492 94.1504 34.0889 94.2676 34.6846C94.3848 35.2803 94.5752 35.8076 94.8389 36.2666C95.1025 36.7158 95.4395 37.0674 95.8496 37.3213C96.2695 37.5752 96.7773 37.7021 97.373 37.7021C98.1348 37.7021 98.7598 37.5361 99.248 37.2041C99.7461 36.8623 100.132 36.3984 100.405 35.8125C100.679 35.2168 100.854 34.5479 100.933 33.8057V31.5059C100.894 30.9199 100.791 30.3779 100.625 29.8799C100.469 29.3818 100.244 28.9521 99.9512 28.5908C99.668 28.2295 99.3164 27.9463 98.8965 27.7412C98.4766 27.5361 97.9785 27.4336 97.4023 27.4336C96.8066 27.4336 96.2988 27.5654 95.8789 27.8291C95.459 28.083 95.1172 28.4395 94.8535 28.8984C94.5898 29.3574 94.3945 29.8896 94.2676 30.4951C94.1504 31.1006 94.0918 31.7549 94.0918 32.458ZM112.681 40.5H108.784V23.7715C108.784 22.4629 109.048 21.3594 109.575 20.4609C110.112 19.5527 110.879 18.8643 111.875 18.3955C112.881 17.9268 114.077 17.6924 115.464 17.6924C116.274 17.6924 117.056 17.7754 117.808 17.9414C118.569 18.0977 119.351 18.3027 120.151 18.5566L119.58 21.6914C119.062 21.5254 118.496 21.3691 117.881 21.2227C117.275 21.0762 116.558 21.0029 115.728 21.0029C114.702 21.0029 113.936 21.2373 113.428 21.7061C112.93 22.1748 112.681 22.8633 112.681 23.7715V40.5ZM115.845 24.6504V27.4336H106.396V24.6504H115.845ZM121.968 24.6504V40.5H118.086V24.6504H121.968ZM128.75 24.6504L131.577 29.6895L134.448 24.6504H138.652L133.994 32.4141L138.843 40.5H134.639L131.606 35.2119L128.56 40.5H124.355L129.189 32.4141L124.561 24.6504H128.75Z" fill="black"/>
</svg>
